<svg xmlns="http://www.w3.org/2000/svg" width="92" height="152">
  <g fill="none" fill-rule="evenodd" stroke="#282D33" stroke-width="4">
    <path d="M57.917 106.5H76.06c7.632 0 13.814 5.477 13.814 12.233v26.13m-87.874 0v-26.13c0-6.756 6.188-12.233 13.817-12.233h17.83m25.008-11v10.057l-13.202 7.627-13.203-7.627V95.5m-1.833-78.348C30.417 8.784 37.197 2 45.56 2c8.365 0 15.144 6.784 15.144 15.152M77.167 51.5h.508c3.366 0 6.096 2.73 6.096 6.1v11.18c0 3.368-2.73 6.098-6.09 6.098h-.51"/>
    <path d="M76.573 68.592c0 17.057-13.822 30.886-30.874 30.886-17.05 0-30.87-13.83-30.87-30.886V43.884C14.83 26.826 28.65 13 45.7 13s30.873 13.826 30.873 30.884v24.708zM14.647 51.5c-3.066.32-8.064 2.885-8.064 6.037v11.18c0 3.154 4.998 5.716 8.064 6.034V51.5zM46 120.25v5.08m0 3.17v5.08"/>
    <path d="M45.7 13c-17.047 0-30.867 13.827-30.867 30.884v5.754h40.134l5.394-9.35 5.4 9.35h10.82v-5.754C76.578 26.827 62.75 13 45.7 13zm-4.283 59.583c1.047 1.82 2.763 3.01 4.704 3.01 1.95 0 3.66-1.19 4.71-3.01M32.38 60.667h-5.63m36.792 0h-5.625m-19.25 22.916v.554c0 3.055 2.476 5.53 5.53 5.53h3.87c3.05 0 5.53-2.475 5.53-5.53v-.554h-14.93z"/>
  </g>
</svg>
