<svg xmlns="http://www.w3.org/2000/svg" width="113" height="152">
  <g fill="none" fill-rule="evenodd" stroke="#282D33" stroke-width="4">
    <path d="M39.68 55.236h11.714V77.16M62.74 55.236h11.715M46.268 92.873c0 3.027 2.457 5.48 5.49 5.48h9.518c3.032 0 5.49-2.453 5.49-5.48 0-.93-.253-1.79-.66-2.557M37.48 18.696h-8.05c-3.64 0-6.59 2.943-6.59 6.577V50.12c0 3.632 2.95 6.576 6.59 6.576l14.644-31.66m46.486 46.29V30.752c0-15.74-12.783-28.502-28.554-28.502H59.08c-10.233 0-19.2 5.378-24.243 13.45L90.56 71.327zM58.82 23.563l41.367 41.292m-71.527 38.97h-7.454c-10.51 0-19.027 8.503-19.027 18.994v18.42m81.47-37.417h7.45c10.508 0 19.027 8.502 19.027 18.994v19.64"/>
    <path d="M84.565 64.004v28.87c0 6.05-4.918 26.308-10.983 26.308H39.905c-6.064 0-10.982-20.257-10.982-26.31v-36.54"/>
    <path d="M28.65 104.254v31.567l28.012-16.77"/>
    <path d="M83.085 106.65v29.17l-28.012-16.773m-.497 12.838v6.1m0 7.32v6.1"/>
  </g>
</svg>
