<svg xmlns="http://www.w3.org/2000/svg" width="72" height="87">
  <g fill-rule="evenodd">
    <path d="M48.7 60.9c7.9-4.4 13.2-12.9 13.2-22.5s-5.3-18-13.1-22.5c-.1-.1-.2-.1-.3-.2-3-1.7-6.5-2.7-10.1-3.1-2.1-1.9-3.3-4.6-3.3-7.5 0-.7.1-1.4.2-2.2.1-.6-.1-1.2-.5-1.7-.4-.4-1.1-.6-1.7-.5-6.3 1.4-10.9 7-10.9 13.5 0 .7.1 1.4.2 2.1-7.5 4.7-12.2 13-12.2 21.9 0 9.7 5.3 18.1 13.2 22.5C10.7 61.3.5 71.9.5 84.8c0 1 .8 1.8 1.8 1.8h67.5c1 0 1.8-.8 1.8-1.8 0-12.6-10.2-23.2-22.9-23.9zM31.4 5.3c0 4.1 1.9 7.9 5 10.5.1 0 .1.1.2.1l.1.1s.1 0 .1.1c.1 0 .1.1.2.1h.4c2.8.2 5.5.9 7.9 2.1-1.6 3.8-5.2 6.3-9.4 6.3-5.6 0-10.2-4.6-10.2-10.2.1-3.9 2.3-7.4 5.7-9.1zm2.8 77.9h-30c.9-10.5 9.7-18.7 20.4-18.7h9.6v18.7zM13.8 38.4c0-7.4 3.7-14.2 9.6-18.3 2.2 4.8 7 8.1 12.6 8.1 5.5 0 10.4-3.2 12.6-8.1 5.8 4 9.6 10.8 9.6 18.3 0 12.3-10 22.2-22.2 22.2s-22.2-9.9-22.2-22.2zm42.4 44.8h-6.5v-6.5h6.5v6.5zm3.6 0v-8.3c0-1-.8-1.8-1.8-1.8H47.9c-1 0-1.8.8-1.8 1.8v8.3h-8.2V64.5h9.6c10.7 0 19.5 8.2 20.4 18.7h-8.1z"/>
    <path d="M40.4 45.9v-.2c0-.1 0-.1-.1-.2 0-.1 0-.1-.1-.2 0-.1-.1-.1-.1-.2L40 45l-.1-.1-.1-.1-.1-.1c-.1 0-.1-.1-.2-.1 0 0-.1 0-.1-.1-.1 0-.1 0-.2-.1-.1 0-.1 0-.2-.1h-4.9l3.6-7.6c.4-.9 0-2-.9-2.4-.9-.4-2 0-2.4.9l-4.8 10.1c0 .1 0 .1-.1.2v1.1c0 .1 0 .1.1.2 0 .1 0 .1.1.2 0 .1.1.1.1.2l.1.1.1.1.1.1.1.1c.1 0 .1.1.2.1 0 0 .1 0 .1.1.1 0 .2.1.3.1h5.1l-1.4 3c-.4.9 0 2 .9 2.4.3.1.5.2.8.2.7 0 1.3-.4 1.6-1l2.6-5.6c0-.1 0-.1.1-.2V46s0-.1-.1-.1z"/>
    <circle cx="47.8" cy="36" r="1.8"/>
    <circle cx="24.2" cy="36" r="1.8"/>
  </g>
</svg>
