<svg xmlns="http://www.w3.org/2000/svg" width="72" height="75">
  <path fill="#4A4A4A" fill-rule="evenodd" d="M48.3 48.4c7.9-4.4 13.2-12.9 13.2-22.5v-.6h.3c1 0 1.8-.8 1.8-1.8s-.8-1.8-1.8-1.8h-.6C59.2 9.4 48.5 0 35.7 0S12.2 9.4 10.2 21.7h-.5c-1 0-1.8.8-1.8 1.8s.8 1.8 1.8 1.8h.2v.6c0 9.7 5.3 18.1 13.2 22.5C10.4 49.1.4 59.7.4 72.5c0 1 .8 1.8 1.8 1.8h67.5c1 0 1.8-.8 1.8-1.8-.1-12.9-10.4-23.5-23.2-24.1zM35.6 3.7c10.8 0 19.9 7.8 21.8 18.1h-4.7c-.7-2.1-2.8-3.6-5.1-3.6-2.4 0-4.4 1.5-5.1 3.6H29.1c-.7-2.1-2.8-3.6-5.1-3.6-2.4 0-4.4 1.5-5.1 3.6h-5.1c2-10.3 11-18.1 21.8-18.1zm13.9 19.9c0 1-.8 1.8-1.8 1.8s-1.8-.8-1.8-1.8.8-1.8 1.8-1.8c.9-.1 1.8.7 1.8 1.8zm-23.7 0c0 1-.8 1.8-1.8 1.8s-1.8-.8-1.8-1.8.8-1.8 1.8-1.8c1-.1 1.8.7 1.8 1.8zm-12.4 2.3v-.6h5.4c.7 2.1 2.8 3.6 5.1 3.6s4.4-1.5 5.1-3.6h3.8l-3.6 7.6c0 .1 0 .1-.1.2v1.1c0 .1 0 .1.1.2 0 .1 0 .1.1.2 0 .1.1.1.1.2l.1.1.1.1.1.1.1.1c.1 0 .1.1.2.1 0 0 .1 0 .1.1.1 0 .2.1.3.1h5.1l-1.4 3c-.4.9 0 2 .9 2.4.3.1.5.2.8.2.7 0 1.3-.4 1.6-1l2.6-5.6c0-.1 0-.1.1-.2v-1.1c0-.1 0-.1-.1-.2 0-.1 0-.1-.1-.2 0-.1-.1-.1-.1-.2l-.1-.1-.1-.1-.1-.1-.1-.1c-.1 0-.1-.1-.2-.1 0 0-.1 0-.1-.1-.1 0-.1 0-.2-.1h-5.2l3.1-6.5h5.5c.7 2.1 2.8 3.6 5.1 3.6s4.4-1.5 5.1-3.6h5.1v.6c0 12.3-10 22.2-22.2 22.2-12-.1-22-10-22-22.3zm11 26.1H34v18.7H4C4.9 60.3 13.7 52 24.4 52zm25 18.8v-6.5h6.5v6.5h-6.5zm10.2 0v-8.3c0-1-.8-1.8-1.8-1.8h-2.1l-1.3-3.1c-.3-.7-.9-1.1-1.7-1.1-.8 0-1.4.4-1.7 1.1l-1.3 3.1h-2.1c-1 0-1.8.8-1.8 1.8v8.3h-8.2V52h9.6c10.7 0 19.5 8.2 20.4 18.7h-8v.1z"/>
</svg>
