<svg xmlns="http://www.w3.org/2000/svg" width="40" height="41">
  <g fill="none" fill-rule="evenodd" transform="translate(0 .6)">
    <ellipse cx="19.7543" cy="19.7297" fill="#D5D5D5" rx="19.7543" ry="19.7297"/>
    <g fill="#FFF">
      <path d="M13.5887 10.7556c-1.137 0-2.068.9155-2.068 2.0357 0 .165.0523.3223.0922.4817-.573.372-.975.9583-.976 1.648 0 .356.118.6933.297.9996-.179.3058-.297.6428-.297.9982 0 .6753.386 1.2542.94 1.6295-.024.123-.057.2444-.057.37 0 1.12.931 2.0348 2.068 2.035.542 0 1.054-.2524 1.461-.617.34.3438.755.616 1.291.617 1.137-.0002 2.068-.915 2.068-2.035 0-.0745-.021-.1467-.029-.2206.67-.347 1.12-1.0157 1.121-1.778-.001-.3562-.119-.6936-.298-.9998.178-.306.297-.643.298-.999 0-.775-.463-1.453-1.15-1.795.019-.112.057-.221.057-.335 0-1.12-.931-2.036-2.069-2.036-.537 0-.951.273-1.291.617-.407-.365-.92-.617-1.461-.618v-.002zm-.0007.7286h.0007c.412 0 .9487.2606 1.181.5778.0694.0948.1807.151.2993.151.1185 0 .23-.0562.2994-.151.2774-.379.5607-.5778.9723-.5778.7388 0 1.329.5813 1.3295 1.3064-.0005.143-.025.2846-.072.4198-.0326.0928-.0257.1946.019.2823.0447.0878.1233.154.2182.1837.5533.173.9265.6745.927 1.2445-.0007.281-.094.555-.2662.781-.099.129-.099.308 0 .438.172.225.2654.499.2662.78-.001.558-.36 1.052-.898 1.233-.1833.062-.2868.253-.2375.437.028.107.043.218.043.329-.001.725-.591 1.305-1.329 1.306-.412 0-.696-.199-.973-.577-.07-.095-.181-.151-.3-.151s-.23.056-.3.151c-.233.318-.769.577-1.181.577-.739 0-1.329-.581-1.33-1.306 0-.132.02-.263.059-.389.054-.173-.028-.359-.193-.437-.46-.218-.75-.673-.751-1.174.001-.282.093-.555.265-.78.099-.13.099-.309 0-.439-.172-.2258-.2648-.4996-.265-.781.001-.513.306-.977.7824-1.188.1797-.08.264-.285.192-.4658-.0603-.152-.091-.313-.091-.476 0-.7254.59-1.307 1.329-1.307v-.0017zm1.4752 10.5655c-.2037.003-.3664.1683-.3636.3693v3.273c0 .201.1654.3642.3694.3642h2.9496c.1333.002.2573-.067.3245-.1805.068-.1135.068-.254 0-.3675-.067-.1135-.191-.1825-.324-.1806h-2.58V22.419c.002-.0985-.037-.1933-.108-.263-.07-.0695-.167-.108-.266-.1063z"/>
      <path d="M15.0632 21.6846c-.096.0016-.1875.0398-.2553.1068l-1.105 1.0893c-.097.0914-.136.227-.102.3547.033.1277.134.2273.264.2606.129.0333.267-.005.359-.1l.843-.832.843.832c.092.095.23.1333.359.1.129-.0333.23-.133.264-.2606.033-.1276-.005-.2633-.102-.3547l-1.104-1.0893c-.071-.0698-.167-.1083-.267-.1068zm7.3898-3.643c-1.1372 0-2.0682.9155-2.0683 2.0357 0 .1648.0524.3223.0923.4817-.573.372-.975.9583-.976 1.648.0006.356.1186.6933.2972.9996-.1783.3058-.2963.6428-.2972.9983.001.675.3863 1.254.9407 1.629-.0233.123-.057.244-.057.37 0 1.12.931 2.035 2.0682 2.035.541 0 1.054-.253 1.46-.617.34.344.755.616 1.291.617 1.137 0 2.068-.915 2.068-2.035 0-.075-.021-.147-.029-.221.671-.347 1.12-1.016 1.121-1.778-.001-.357-.119-.694-.298-1 .178-.306.297-.643.298-.999-.001-.775-.464-1.453-1.15-1.795.019-.112.057-.221.057-.335 0-1.12-.931-2.036-2.068-2.036-.537 0-.951.273-1.292.617-.407-.364-.92-.6167-1.461-.6175v-.001zm-.001.7286h.001c.4117 0 .9485.2606 1.1807.5778.0695.0948.1808.151.2994.151.119 0 .23-.0562.3-.151.278-.379.561-.5778.973-.5778.739 0 1.329.5813 1.33 1.3064 0 .143-.025.2847-.072.4198-.032.0928-.025.1946.019.2824.045.0877.124.154.218.1837.554.173.927.6745.927 1.2444 0 .281-.094.555-.266.781-.099.13-.099.308 0 .438.172.225.266.499.266.78-.001.558-.36 1.052-.898 1.233-.183.062-.287.253-.237.437.029.107.043.218.044.329 0 .725-.59 1.305-1.328 1.305-.411 0-.696-.199-.973-.577-.069-.095-.181-.151-.299-.151s-.229.056-.299.151c-.2322.318-.769.577-1.181.577-.739 0-1.329-.581-1.329-1.307 0-.1318.02-.2628.06-.3886.054-.1728-.0275-.3587-.193-.437-.4592-.218-.75-.673-.751-1.174.001-.2815.094-.5546.2658-.78.099-.13.099-.3087 0-.4384-.172-.2255-.265-.4994-.2654-.7812.0017-.513.306-.977.783-1.188.1796-.08.264-.2848.192-.465-.0603-.152-.091-.313-.091-.476 0-.725.59-1.3068 1.329-1.307v-.001zm-1.4686-5.8288c-.1332-.002-.2572.067-.3245.1806-.068.1135-.068.254 0 .3675.067.1135.191.1825.324.1805h2.58v2.9095c-.002.1314.068.2536.183.3198.115.0662.257.0662.372 0 .115-.0662.185-.1884.183-.3198v-3.2738c0-.2012-.165-.3642-.369-.3643h-2.949z"/>
      <path d="M22.825 15.4915c-.1505-.0002-.2863.0897-.343.2274-.0565.137-.0227.295.0856.398l1.1044 1.088c.1442.142.378.142.5222 0l1.1044-1.089c.0965-.092.1353-.227.1016-.355-.0337-.128-.1348-.228-.2642-.261s-.267.005-.3596.1l-.8433.831-.843-.831c-.069-.071-.165-.111-.264-.111z"/>
    </g>
  </g>
</svg>
