<svg xmlns="http://www.w3.org/2000/svg" width="40" height="41">
  <g fill="none" fill-rule="evenodd" transform="translate(0 .6)">
    <ellipse cx="19.754" cy="19.73" fill="#D5D5D5" rx="19.754" ry="19.73"/>
    <g fill="#FFF">
      <path d="M17.767 23.433l-1.99-5.11h-.588l-2.05 5.11c-.1.02-.19.05-.29.09-.1.04-.19.087-.28.14v.3h1.96v-.3c-.22-.122-.45-.2-.69-.23l.46-1.26h1.76l.46 1.26c-.11.02-.22.053-.33.095-.12.042-.23.087-.33.134v.302h2.48v-.302c-.08-.052-.176-.098-.28-.138-.11-.04-.21-.07-.32-.09zm-3.26-1.775l.547-1.497.175-.69h.01l.15.68.51 1.52h-1.4z"/>
      <path d="M29.253 10.878h-9.82c-.432 0-.784.352-.784.785v3.93H10.4c-.216 0-.392.175-.392.392v10.192c0 .216.176.392.393.392h3.54v1.74c0 .15.09.28.22.35.06.02.12.04.17.04.09 0 .17-.03.24-.09l2.65-2.06h3.79c.22 0 .4-.18.4-.398v-4.31h.85c.13 0 .36.08.46.16l2.07 1.64c.13.1.27.155.41.155.27 0 .54-.21.54-.61v-1.34h3.535c.435 0 .787-.35.787-.784v-9.41c0-.433-.35-.786-.784-.786zm-8.64 14.906h-3.535c-.088 0-.173.03-.242.083l-2.115 1.645v-1.336c0-.217-.17-.392-.39-.392H10.8v-9.407h7.855v4.7c0 .433.35.785.785.785h1.178v3.922zm8.64-4.707h-3.535c-.433 0-.785.352-.785.785v.925l-1.738-1.38c-.24-.19-.638-.33-.945-.33h-2.816v-9.414h9.82v9.414z"/>
      <path d="M21.165 19.875h.44v-.35h1.716v-2.19h-2.15v2.54zm.44-2.116h1.268v1.34h-1.268v-1.34zm-.785-3.53h2.74v.42h-2.74zm.397-1.01h2.06v.41h-2.06zm2.955 6.66h.478v-.35h2.178v.3h.485v-2.66h-3.14v2.71zm.478-2.26h2.178v1.45H24.65v-1.45zm3.185-1.53h-.746v-1.57h-1.71l.12-.84h2.04v-.45h-3.71v.442h1.18c-.05.26-.09.55-.14.833H24v.447h.82c-.073.41-.148.8-.215 1.127h-1.023v.453h4.253v-.45zm-1.23 0h-1.5c.067-.33.14-.73.208-1.13h1.29v1.13zm-5.433-.83h2.126v.41h-2.126zm0 1.03h2.126v.41h-2.126z"/>
    </g>
  </g>
</svg>
