<svg xmlns="http://www.w3.org/2000/svg" width="41" height="41">
  <g fill="none" fill-rule="evenodd" transform="translate(0 .6)">
    <ellipse cx="20.025" cy="20" fill="#D5D5D5" rx="20.025" ry="20"/>
    <path fill="#FFF" d="M16.58 29.087c-.066 0-.13-.018-.194-.048-1.685-.84-5.603-3.85-5.603-13.72 0-2.61 2.273-4.56 4.305-4.56.332 0 .654.05.957.15 1.264.42 1.83 2.01 1.628 3.24-.225 1.37-1.32 2.09-2.75 1.73-.025 1.18.907 2.42 1.813 3.61.442.587.87 1.156 1.176 1.71.502-1.505 1.355-2.89 4.96-2.988.183-2.056 1.7-4.006 4.437-4.006 1.41 0 2.67.66 3.45 1.802.89 1.304 1 3.05.3 4.78-.67 1.33-1.86 2.04-2.69 2.225-.29 1.672-2.31 4.702-4.28 5.355-1.08.357-2.47.357-3.83.357-1.29 0-2.61 0-3.55.31-.05.02-.09.027-.14.027zM15.09 11.63c-1.593 0-3.442 1.616-3.442 3.7 0 9.087 3.364 11.995 4.975 12.866 1.047-.302 2.366-.302 3.646-.302 1.28 0 2.61-.002 3.55-.31 1.81-.602 3.72-3.796 3.72-4.924 0-.236.19-.43.43-.43.47 0 1.67-.53 2.29-1.762.57-1.433.5-2.885-.23-3.952-.62-.906-1.61-1.423-2.74-1.423-2.47 0-3.59 1.848-3.59 3.567 0 .236-.2.43-.438.43-3.84 0-4.24 1.33-4.74 3.02-.07.226-.137.454-.215.686-.07.197-.274.322-.48.287-.21-.034-.364-.213-.364-.423 0-.713-.7-1.643-1.445-2.63-1.093-1.448-2.33-3.084-1.896-4.807.03-.122.11-.22.22-.278.11-.055.24-.064.36-.017.343.137.66.207.932.207.85 0 1.09-.694 1.16-1.106.14-.88-.254-2.03-1.05-2.3-.21-.07-.44-.11-.68-.11z"/>
  </g>
</svg>
