<svg xmlns="http://www.w3.org/2000/svg" width="40" height="41">
  <g fill="none" fill-rule="evenodd" transform="translate(0 .6)">
    <ellipse cx="19.7543" cy="19.7297" fill="#D5D5D5" rx="19.7543" ry="19.7297"/>
    <g fill="#FFF" transform="translate(9.117 10.624)">
      <path d="M19.7767 13.991h-5.3762c-.2743 0-.4938.2174-.4938.489 0 .2717.2195.489.4938.489h5.3762c.2743 0 .4937-.2173.4937-.489.0274-.2716-.2194-.489-.4937-.489zm-.0275 1.2497H14.428c-.2744 0-.4938.2174-.4938.489 0 .2717.2194.489.4937.489h5.321c.274 0 .494-.2173.494-.489 0-.2716-.22-.489-.494-.489zm-.7132 1.2497h-3.895c-.2742 0-.4937.2174-.4937.489 0 .2717.2195.489.4938.489h3.923c.275 0 .494-.2173.494-.489 0-.2445-.247-.489-.521-.489zM17.0886.0544c-3.4836 0-6.0345 2.5265-6.0345 6.031 0 2.092 1.098 3.4774 1.975 4.564.494.625.933 1.1683.988 1.63l.192 1.3856h.933l-.219-1.63c-.082-.6792-.548-1.2768-1.124-1.9832-.823-1.0323-1.728-2.1733-1.728-3.9392 0-2.9884 2.057-5.053 5.047-5.053 2.9624 0 5.047 2.0646 5.047 5.053 0 1.766-.9326 2.907-1.728 3.9392-.5486.7064-1.0424 1.304-1.1246 1.9832l-.2194 1.63h.9323l.192-1.3855c.055-.4618.466-1.0052.9873-1.63.8776-1.114 1.975-2.4722 1.975-4.564C23.123 2.608 20.572.0542 17.0883.0542zM8.8323 3.423v-.5433c0-.5162-.4114-.9237-.9326-.9237H6.7202c-.0548 0-.1097-.0543-.1097-.1086v-.1087c0-.5162-.4114-.9237-.9326-.9237H3.373c-.521 0-.9326.4075-.9326.9237v.1087c0 .0543-.0548.1086-.1097.1086H1.152c-.521 0-.9326.4075-.9326.9237v.5434c0 .517.4115.924.9326.924h1.344v13.312c0 .543.439.978.9875.978h2.0573c.5485 0 .9874-.435.9874-.978V4.347h1.344c.5212 0 .96-.4075.96-.9236zM5.9248 17.849c0 .1086-.0823.19-.192.19H3.319c-.1098 0-.192-.0814-.192-.19v-1.0595h1.2343c.1646 0 .3017-.136.3017-.2717 0-.163-.137-.2717-.3017-.2717H3.127v-.489h1.2343c.1646 0 .3017-.136.3017-.271 0-.136-.137-.271-.3017-.271H3.127v-.462h1.2343c.1646 0 .3017-.1352.3017-.271 0-.163-.137-.2716-.3017-.2716H3.127v-.462h1.2343c.1646 0 .3017-.1357.3017-.2715 0-.163-.137-.2718-.3017-.2718H3.127v-.4615h1.2343c.1646 0 .3017-.136.3017-.272 0-.163-.137-.2713-.3017-.2713H3.127v-.516h1.2343c.1646 0 .3017-.136.3017-.2717 0-.163-.137-.2718-.3017-.2718H3.127v-.462h1.2343c.1646 0 .3017-.136.3017-.2715 0-.163-.137-.2714-.3017-.2714H3.127v-.462h1.2343c.1646 0 .3017-.136.3017-.272 0-.163-.137-.2716-.3017-.2716H3.127v-.462h1.2343c.1646 0 .3017-.136.3017-.272 0-.1356-.137-.2714-.3017-.2714H3.127v-.517h1.2343c.1646 0 .3017-.136.3017-.272 0-.163-.137-.2716-.3017-.2716H3.127v-.462h1.2343c.1646 0 .3017-.136.3017-.2716 0-.163-.137-.2717-.3017-.2717H3.127v-.462h1.2343c.1646 0 .3017-.1355.3017-.2714 0-.136-.137-.272-.3017-.272H3.127v-.842h2.7978v13.638zM1.152 3.7218c-.1645 0-.3017-.1357-.3017-.2987V2.88c0-.163.1372-.2988.3017-.2988h1.1795c.4114 0 .7406-.326.7406-.7336V1.739c0-.163.138-.299.302-.299h2.304c.165 0 .302.1357.302.2987v.1087c0 .4075.329.7335.741.7335H7.9c.1645 0 .3016.135.3016.298v.543c0 .163-.137.299-.3017.299H1.152z"/>
      <ellipse cx="4.5259" cy="2.2277" rx=".3292" ry=".326"/>
      <path d="M10.3683 8.3403v-.625c0-.326-.2742-.5704-.576-.5704h-.2468c-.3292 0-.576.271-.576.57v.625L7.79 10.323c-.0823.109-.1646.2447-.1646.4077v8.476c0 .5974.4937 1.0864 1.0972 1.0864h1.8103c.603 0 1.097-.489 1.097-1.086v-8.476c0-.163-.083-.272-.165-.38l-1.097-2.01zm-.713.2988l1.152 2.038-.1647.109-.329-.244c-.055-.054-.1373-.054-.192 0l-.4664.272-.4663-.2713c-.055-.027-.138-.027-.192 0l-.33.217-.165-.1086 1.153-2.012zM8.119 10.568s.0276-.0272 0 0c0-.0272 0 0 0 0zm2.7705 8.639c0 .1903-.137.326-.329.326H8.75c-.192 0-.329-.1357-.329-.326v-.9236h2.4685v.9237zm0-1.2767H8.421v-.489h2.4685v.489zm0-.8694h-.4937v-5.624c0-.109-.0823-.19-.192-.19s-.192.081-.192.19v5.623h-.7406v-5.623c0-.109-.0823-.19-.192-.19-.1098 0-.192.081-.192.19v5.623h-.4938v-5.976l.1372.081c.0548.0542.137.0542.2194 0l.3292-.2175.4663.272c.0548.027.137.027.192 0l.4663-.271.329.245c.055.0542.1373.0542.2196 0l.137-.0817v5.9497zm.2743-6.493s0-.028 0 0c0-.028 0 0 0 0z"/>
    </g>
  </g>
</svg>
