<svg xmlns="http://www.w3.org/2000/svg" width="193" height="196">
  <g fill="none" fill-rule="evenodd">
    <path stroke="#282D33" stroke-width="4" d="M35.04 42.98H0m53.68 0H42m18 0h6.1"/>
    <path fill="#FFD23D" d="M145.8 28.87c0 1.64-1.36 2.96-3.05 2.96h-5.9v11.12l-14.5-11.12h-19.3c-1.7 0-3.05-1.32-3.05-2.96V2.97c0-1.64 1.36-2.97 3.05-2.97h39.7c1.7 0 3.06 1.33 3.06 2.97v25.9z"/>
    <path stroke="#282D33" stroke-width="4" d="M74 50.87c0 1.64 1.37 2.96 3.05 2.96h5.92v11.12l14.5-11.12h19.28c1.7 0 3.05-1.32 3.05-2.96v-25.9c0-1.64-1.36-2.97-3.05-2.97h-39.7C75.37 22 74 23.33 74 24.97v25.9zm73.64 69.73c0 6.03-4.93 10.92-11 10.92-6.1 0-11.03-4.9-11.03-10.92 0-6.03 4.97-10.92 11.06-10.92 6.08 0 11 4.9 11 10.92zm-11-13.27V97m0 47.2v-10.33M125 113.97l-9-5.17m41.25 23.6l-9.03-5.17m-23.2 0L116 132.4m41.25-23.6l-9.03 5.16M177 164v31.57m15.55-15.8H161"/>
    <path fill="#FFF" d="M185.86 60.15l-12.62 12.63"/>
    <path stroke="#282D33" stroke-width="4" d="M185.86 60.15l-12.62 12.63m12.62 0l-12.62-12.62"/>
  </g>
</svg>
