<svg xmlns="http://www.w3.org/2000/svg" width="123" height="199">
  <g fill="none" fill-rule="evenodd">
    <path fill="#FFD23D" d="M43.4 124.4c0 1.74 1.46 3.15 3.27 3.15H53v11.9l15.5-11.9h20.64c1.8 0 3.26-1.4 3.26-3.16V96.6c0-1.75-1.46-3.18-3.26-3.18H46.67c-1.8 0-3.27 1.42-3.27 3.17v27.7z"/>
    <path stroke="#282D33" stroke-width="4" d="M121 149.77c0 1.86-1.55 3.37-3.46 3.37h-6.72v12.62l-16.45-12.62h-21.9c-1.93 0-3.47-1.5-3.47-3.37v-29.4c0-1.86 1.54-3.37 3.46-3.37h45.08c1.9 0 3.46 1.5 3.46 3.37v29.4z"/>
    <path fill="#FFF" d="M29.86 67.15L17.24 79.78"/>
    <path stroke="#282D33" stroke-width="4" d="M29.86 67.15L17.24 79.78m12.62 0L17.24 67.16"/>
    <g stroke="#282D33" stroke-width="4">
      <path d="M87.3 23.16c0 11.68-9.48 21.15-21.15 21.15C54.47 44.3 45 34.9 45 23.2 45 11.48 54.47 2 66.15 2 77.82 2 87.3 11.47 87.3 23.16z"/>
      <path d="M73.92 20.96c0 4.4-3.56 7.97-7.96 7.97S58 25.36 58 20.96 61.57 13 65.96 13c4.4 0 7.96 3.57 7.96 7.96zM71.9 30H59.96c-4.4 0-7.96 3.57-7.96 7.96v.65c3.64 3.5 8.54 5.6 13.93 5.6 5.4 0 10.3-2.1 13.93-5.52V38c0-4.4-3.56-7.97-7.96-7.97z"/>
    </g>
    <path stroke="#282D33" stroke-width="4" d="M68.04 196H33m-3.96 1H12m-4.96 0H0"/>
  </g>
</svg>
