<svg xmlns="http://www.w3.org/2000/svg" width="601" height="323" xmlns:xlink="http://www.w3.org/1999/xlink">
  <defs>
    <path id="a" d="M0 322.5018h599.9845V.5742H0v321.9276z"/>
  </defs>
  <g fill="none" fill-rule="evenodd" opacity=".7">
    <path stroke="#282D33" stroke-width="4" d="M337.0144 147.237v-15.3456m21.567 0v15.3456m-29.8258-30.7088h-.4147c-2.751 0-4.978-2.2282-4.978-4.9768v-1.7053l5.392 6.683zm50.4837-14.8365h.4172c2.7487 0 4.9782 2.2282 4.9782 4.975v4.885c0 2.7485-2.2295 4.9767-4.9782 4.9767h-.4172"/>
    <path stroke="#282D33" stroke-width="4" d="M378.5048 84.6712v35.5013c0 7.0225-5.697 12.7168-12.7254 12.7168h-24.389c-7.0268 0-12.7254-5.6943-12.7254-12.7168v-16.894"/>
    <path stroke="#282D33" stroke-width="4" d="M337.8556 110.3725v9.1432c0 2.309 1.8807 4.1893 4.1934 4.1893h9.1472l-13.3406-13.3325zm13.5666-13.4988c-2.87 2.869-7.5214 2.869-10.3956 0m33.0178-.0017c-2.8717 2.8684-7.5248 2.8684-10.3956 0"/>
    <path stroke="#282D33" stroke-width="4" d="M345.722 58.9724c-8.0903 0-14.8637 5.5534-16.7648 13.0475-3.3753 2.286-5.5935 6.149-5.5935 10.531v21.139h1.1173c7.0268 0 12.7237-5.694 12.7237-12.717v-6.136c1.2354.4 2.5498.627 3.9205.627h33.4033c7.026 0 12.7237-5.691 12.7237-12.717V58.972H345.722zm14.2877 51.132c0-2.3413 1.9003-4.239 4.243-4.239 2.3413 0 4.2417 1.8977 4.2417 4.239 0 2.3407-1.9004 4.238-4.2416 4.238m-4.7723-4.238v-24.375m-87.7937 84.183H256.731c-6.1728 0-11.1754 4.3227-11.1754 9.6546v29.5195m70.3304-26.6405v-2.8798c0-5.331-4.8845-9.6538-10.9106-9.6538h-15.5262m-.7546-32.2667c-2.2614 0-4.1014-1.838-4.1014-4.0988v-6.549c0-2.26 1.84-4.099 4.1014-4.099h12.987c2.2596 0 4.102 1.839 4.102 4.099v6.548c0 2.26-1.8424 4.098-4.102 4.098h-12.987zm-29.3912 0c-2.2597 0-4.1005-1.838-4.1005-4.0988v-6.549c0-2.26 1.84-4.099 4.1-4.099h12.986c2.261 0 4.103 1.839 4.103 4.099v6.548c0 2.26-1.842 4.098-4.103 4.098h-12.986zm17.089-10.6472h8.2002"/>
    <path stroke="#282D33" stroke-width="4" d="M303.014 137.6636v11.483c0 12.4302-10.0843 22.5076-22.5204 22.5076-12.4377 0-22.5212-10.0774-22.5212-22.5075v-11.483m7.831-37.6653v4.7032c0 4.6323 3.7576 8.3875 8.392 8.3875h31.7042c4.635 0 8.3918-3.755 8.3918-8.387V91.731H289.243"/>
    <path stroke="#282D33" stroke-width="4" d="M273.3866 99.5356c0 3.2438.2298 5.8743 5.8778 5.8743h24.2252m1.868-22.072h-28.6492c-6.0065 0-10.8772 4.866-10.8772 10.869"/>
    <path stroke="#282D33" stroke-width="4" d="M267.1818 92.1897h-1.378c-4.5707 0-8.2744 3.7015-8.2744 8.2686v17.9135m18.2303 37.0532h9.4992m-1.302 31.387h-3.448c-4.569 0-8.272-3.7016-8.272-8.2687v-9.6458"/>
    <path fill="#FFD23D" d="M402.943 311.0457h15.1245v-15.1153H402.943v15.1153z"/>
    <path stroke="#282D33" stroke-width="4" d="M435.4415 299.0445v1.6288h-1.6298"/>
    <path stroke="#282D33" stroke-width="4" d="M430.9517 300.6733h-15.7324" stroke-dasharray="3.51 3.51"/>
    <path stroke="#282D33" stroke-width="4" d="M413.7895 300.6733h-1.6298v-1.6288"/>
    <path stroke="#282D33" stroke-width="4" d="M412.1597 296.1858V280.463" stroke-dasharray="3.51 3.51"/>
    <path stroke="#282D33" stroke-width="4" d="M412.1597 279.0337v-1.6288h1.6298"/>
    <path stroke="#282D33" stroke-width="4" d="M416.6496 277.405h15.7324" stroke-dasharray="3.51 3.51"/>
    <path stroke="#282D33" stroke-width="4" d="M433.8117 277.405h1.6298v1.6287"/>
    <path stroke="#282D33" stroke-width="4" d="M435.4415 281.8925v15.7228" stroke-dasharray="3.51 3.51"/>
    <path stroke="#282D33" stroke-width="4" d="M182.4877 290.7574h18.556m-11.4877-6.8306h18.555m-28.2724 0h6.1834m-13.2533 6.8306h6.185M575.9423 153.085h16.856m-28.2725 0h6.185m5.2315-10.504h16.856m-28.2725 0h6.185"/>
    <path fill="#FFD23D" d="M156.022 52.5017c0 .864-.7 1.5628-1.5654 1.5628h-3.0314v5.8694l-7.4286-5.87h-9.8912c-.8654 0-1.5646-.699-1.5646-1.563V38.83c0-.8633.6992-1.566 1.5646-1.566h20.3512c.8654 0 1.5654.7027 1.5654 1.566v13.6713z"/>
    <path stroke="#282D33" stroke-width="4" d="M119.518 61.2728c0 .8633.7 1.5637 1.5647 1.5637h3.0322v5.8677l7.429-5.8677h9.889c.867 0 1.564-.7004 1.564-1.5637V47.6015c0-.8633-.698-1.566-1.565-1.566h-20.351c-.865 0-1.565.7027-1.565 1.566v13.6713z"/>
    <path fill="#FFD23D" d="M577.4368 77.1372c.771.443.771 1.167 0 1.6125l-11.3988 6.577c-.77.444-1.3983.08-1.3983-.806V71.3663c0-.891.6283-1.2542 1.3983-.8087l11.3988 6.5795z"/>
    <path stroke="#282D33" stroke-width="4" d="M24.762 189.0673H-.0003m37.7313 0h-8.254m12.5704 0h4.3108M246.4267 290.245h4.8975m-7.8937-4.6098l2.4488-4.238m-7.9406 4.5268l-2.448-4.2398m-.0477 9.1373h-4.899m7.8945 4.6085l-2.4496 4.238m7.94-4.5265l2.448 4.2406M394.941 27.505v5.362m-8.745-.3162l4.645 2.6818m-4.645 7.4117l4.645-2.6802m4.1 7.726v-5.361m8.745.316l-4.6456-2.68m4.6456-7.413l-4.6456 2.682"/>
    <path fill="#FFD23D" d="M62.6052 307.0457c-1.796.0245-3.355 1.0303-4.2032 2.519-.8882-1.4668-2.47-2.4367-4.2684-2.4163-2.734.0105-4.9195 2.4383-4.8796 5.424.0057.5797.0994 1.132.2632 1.6376.383 1.6834 3.156 4.1412 5.719 6.134 1.2443.962 3.341 2.3895 3.341 2.3976.8866-.562 2.0592-1.465 3.2734-2.4643 2.5058-2.0515 5.208-4.594 5.5486-6.2896.1516-.5106.2307-1.066.2225-1.646-.036-2.9904-2.284-5.353-5.0165-5.296"/>
    <path stroke="#282D33" stroke-width="4" d="M58.802 235.881h16.462m-25.0827 0h5.4875m-49.273-9.343h1.6298"/>
    <path stroke="#282D33" stroke-width="4" d="M11.3186 226.538h44.4566" stroke-dasharray="4.041 4.041"/>
    <path stroke="#282D33" stroke-width="4" d="M57.4214 226.538h1.6298m-37.221 36.6356l-7.489 7.4843m7.489-.001l-7.489-7.484"/>
    <path stroke="#282D33" stroke-width="4" d="M56.5707 200.3692h3.6287" stroke-dasharray="4.058 4.058"/>
    <path fill="#FFF" d="M598.8302 208.0212l-8.9182 8.9136"/>
    <path stroke="#282D33" stroke-width="4" d="M598.8302 208.0212l-8.9182 8.9136"/>
    <path fill="#FFF" d="M598.8317 216.935l-8.9198-8.9135"/>
    <path stroke="#282D33" stroke-width="4" d="M598.8317 216.935l-8.9198-8.9135M306.666 32.9398v11.5026m5.7535-5.7516h-11.5087m126.4262 5.4077v22.2852m11.1468-11.1427h-22.297M266.8332.814v22.2853m11.1475-11.1425h-22.297M206.691 24.687c0 2.662-2.1578 4.8195-4.82 4.8195-2.663 0-4.821-2.1574-4.821-4.8196 0-2.661 2.158-4.818 4.821-4.818 2.6622 0 4.82 2.156 4.82 4.817zm-4.82-5.8552V14.276m0 20.823v-4.5556m-5.0756-8.784l-3.9482-2.278M210.892 29.894l-3.9473-2.278m-10.1493.0002l-3.9482 2.278m18.0448-10.4124l-3.9473 2.2778m45.6303 30.522c0 3.106-2.5204 5.6234-5.6284 5.6234-3.1056 0-5.6253-2.5173-5.6253-5.6234 0-3.1037 2.5197-5.6218 5.6253-5.6218 3.108 0 5.6284 2.518 5.6284 5.6218zm-1.4078 6.2488h-8.4382c-3.1088 0-5.627 2.5173-5.627 5.6218v.4577c2.572 2.422 6.0328 3.916 9.844 3.916 3.817 0 7.2738-1.494 9.848-3.916v-.458c0-3.105-2.518-5.622-5.6268-5.622z"/>
    <g stroke="#282D33" stroke-width="4">
      <path d="M481.842 23.6033c0 8.2466-6.692 14.932-14.9427 14.932-8.2533 0-14.9436-6.6854-14.9436-14.932 0-8.2482 6.6903-14.9344 14.9436-14.9344 8.2508 0 14.9427 6.686 14.9427 14.934z"/>
      <path d="M472.5255 21.7276c0 3.106-2.5196 5.6234-5.6276 5.6234-3.106 0-5.626-2.5173-5.626-5.6234 0-3.1037 2.519-5.6226 5.625-5.6226 3.108 0 5.627 2.519 5.627 5.6226zm-1.4077 6.2487h-8.4382c-3.1088 0-5.627 2.5173-5.627 5.6218v.458c2.5736 2.422 6.0328 3.917 9.845 3.917 3.8168 0 7.2736-1.494 9.847-3.916V33.6c0-3.1044-2.518-5.6217-5.6268-5.6217z"/>
    </g>
    <path stroke="#282D33" stroke-width="4" d="M350.0034 247.7748c8.2874 2.6167 14.1017 8.745 14.1017 15.8865v5.955m-79.988-.0003v-5.9548c0-6.7416 5.182-12.5792 12.735-15.415m47.516-46.1942v8.3093c.043 9.9544-6.78 30.8234-20.255 31.2852-13.484-.461-20.296-21.3324-20.259-31.2852v-8.3093"/>
    <path stroke="#282D33" stroke-width="4" d="M324.0987 185.391c-.2078-1.8226-2.1978-5.0378-6.185-5.393-4.4404-.4103-8.5002 2.1167-10.913 9l-12.7133 52.2372m29.8344-55.8426c.2094-1.8234 2.201-5.0387 6.1866-5.3938 4.4388-.4112 8.5002 2.116 10.914 9l12.7122 52.2363"/>
    <path stroke="#282D33" stroke-width="4" d="M353.9943 188.3313v50.4935c0 9.521-7.7244 17.2408-17.252 17.2408h-2.704m-19.8553.0004h-2.703c-9.5285 0-17.2513-7.7197-17.2513-17.241v-50.4934m39.8093 49.5914v18.5568c0 5.48-4.4427 9.921-9.926 9.921-5.4827 0-9.9288-4.441-9.9288-9.921v-18.557m4.3448-14.1063c-.022.1987-.0366.4007-.0366.6043 0 3.0084 2.439 5.4442 5.4484 5.4442h.7244c3.0102 0 5.451-2.4358 5.451-5.4442 0-.2036-.0156-.4056-.036-.6043h-11.551z"/>
    <path stroke="#282D33" stroke-width="4" d="M326.649 199.2617l6.7198 14.813h-8.559" stroke-linejoin="bevel"/>
    <path stroke="#282D33" stroke-width="4" d="M294.246 189.9227c0-16.0453 13.3765-29.053 29.875-29.053 16.499 0 29.8747 13.0077 29.8747 29.053"/>
    <g stroke="#282D33" stroke-width="4">
      <path d="M511.0237 207.632h8.8107v16.5085m8.5336-16.5085h8.8107m-21.1995 28.3404c0 2.2795 1.8482 4.1265 4.129 4.1265h7.159c2.28 0 4.129-1.847 4.129-4.127 0-.7-.1907-1.349-.4963-1.926m-21.529-53.93h-6.058c-2.737 0-4.956 2.216-4.956 4.953v18.71c0 2.734 2.219 4.951 4.955 4.951l11.014-23.84m34.963 34.855v-30.55c0-11.852-9.614-21.462-21.475-21.462h-2.201c-7.696 0-14.441 4.048-18.233 10.128l41.909 41.884zm-23.87-35.963l31.111 31.092m-53.796 29.343h-5.605c-7.905 0-14.311 6.403-14.311 14.303v13.87m61.2742-28.172h5.606c7.9037 0 14.3104 6.402 14.3104 14.302v14.788"/>
      <path d="M544.783 214.2345v21.738c0 4.5573-3.699 19.8102-8.2607 19.8102h-25.3285c-4.561 0-8.2598-15.253-8.2598-19.8102v-27.516"/>
      <path d="M502.7284 244.5423v23.7698l21.0682-12.63"/>
      <path d="M543.6696 246.3468v21.9652l-21.0683-12.6305m-.3736 9.6665v4.5933m0 5.512v4.5932"/>
    </g>
    <path stroke="#282D33" stroke-width="4" d="M141.4096 188.9615v30.0098c0 10.654-8.641 19.2915-19.3032 19.2915-10.662 0-19.3048-8.6375-19.3048-19.2915v-3.9824"/>
    <path stroke="#282D33" stroke-width="4" d="M90.1087 258.1632V201.517c0-17.758 14.404-32.1534 32.1728-32.1534 17.7688 0 32.173 14.3953 32.173 32.1533v75.33"/>
    <path stroke="#282D33" stroke-width="4" d="M122.2803 183.707l32.1737 32.1532V201.517c0-17.7587-14.4033-32.1532-32.172-32.1532-17.7696 0-32.173 14.3945-32.173 32.1532v14.3432l32.1713-32.1532zm12.5663-.898l20.224 20.2118m-32.631-8.7288L93.94 222.7724"/>
    <path stroke="#282D33" stroke-width="4" d="M114.7154 223.8706c0 2.5368 2.02 4.5932 4.5104 4.5932h3.3077" stroke-linejoin="round"/>
    <path stroke="#282D33" stroke-width="4" d="M107.3615 231.1783v.3062c0 6.4264-5.213 11.637-11.645 11.637m25.7378-3.674v.3046c0 6.428 5.2136 11.638 11.6448 11.638m8.426-43.986c0 4.346-3.524 7.867-7.872 7.867-4.347 0-7.87-3.521-7.87-7.867s3.523-7.867 7.87-7.867c4.348 0 7.872 3.522 7.872 7.867zm-25.628-5.563c3.073 3.073 3.075 8.053 0 11.126-3.075 3.074-8.058 3.073-11.131 0m17.475 38.614h14.249c5.076 0 9.193 4.112 9.193 9.188v19.291m-60.516-35.676c-5.078 0-9.193 4.113-9.193 9.187v9.188m11.294 8.366c1.396-3.2973 4.662-7.4475 8.47-7.4475h29.414c5.078 0 9.194 4.112 9.194 9.187v8.268m104.257-90.191v36.303c0 5.3594-2.108 10.2263-5.544 13.816m-38.18-.932c-2.9372-3.479-4.708-7.9746-4.708-12.8846V190.94m13.123 47.647c-13.756 2.8415-25.08 11.15-30.794 22.1428m82.561 0c-5.705-10.9756-17.0033-19.276-30.731-22.1304"/>
    <path stroke="#282D33" stroke-width="4" d="M237.3172 199.2127c4.7305 0 8.5662 3.8342 8.5662 8.5626 0 4.7292-3.8357 8.561-8.5662 8.561m-45.864.0003c-4.732 0-8.5686-3.8318-8.5686-8.5618 0-4.7284 3.8365-8.5618 8.5686-8.5618m31.2738 31.239v8.628c0 4.9392-4.0076 8.9436-8.95 8.9436-4.943 0-8.95-4.0044-8.95-8.9437v-8.628"/>
    <path stroke="#282D33" stroke-width="4" d="M238.6008 211.4586c0 11.0416-8.9557 19.9926-20.0056 19.9926h-8.4228c-11.0483 0-20.0056-8.951-20.0056-19.9926v-36.3018c0-11.0425 8.9573-19.9943 20.0056-19.9943h8.4228c11.05 0 20.0056 8.9518 20.0056 19.9943v36.3018z"/>
    <path stroke="#282D33" stroke-width="4" d="M218.5953 155.163h-8.4227c-11.0492 0-20.0057 8.9517-20.0057 19.9934v23.9392c9.991-.9056 19.497-10.2215 24.217-23.5557 4.719 13.334 14.226 22.65 24.217 23.557v-23.941c0-11.042-8.956-19.994-20.006-19.994zm-21.5055 47.888c0-2.0377 2.752-3.6918 6.1492-3.6918 3.399 0 6.1516 1.654 6.1516 3.6917m7.703 0c0-2.038 2.7536-3.692 6.151-3.692 3.3972 0 6.1507 1.654 6.1507 3.691m-23.5963 8.933v3.682c0 2.906 2.3575 5.261 5.265 5.261h3.685c2.9083 0 5.2642-2.355 5.2642-5.261v-3.683H205.799zM88.498 138.328h13.9876c5.8844 0 10.65 4.218 10.65 9.421v20.122m-68.053 0v-20.122c0-5.203 4.7704-9.421 10.6523-9.421h13.747"/>
    <path stroke="#282D33" stroke-width="4" d="M89.2882 130.3237v7.745l-10.178 5.8734-10.179-5.873v-7.745M67.286 69.828c0-6.4443 5.2268-11.6687 11.6758-11.6687 6.4483 0 11.6742 5.2244 11.6742 11.6687m12.589 26.171h.392c2.5946 0 4.6995 2.1026 4.6995 4.698v8.6083c0 2.5947-2.105 4.6975-4.6995 4.6975h-.392"/>
    <path stroke="#282D33" stroke-width="4" d="M102.804 109.0976c0 13.1355-10.6564 23.7854-23.8022 23.7854-13.1418 0-23.7966-10.65-23.7966-23.7854V90.0692c0-13.1362 10.6548-23.7837 23.7966-23.7837 13.1458 0 23.8022 10.6475 23.8022 23.7837v19.0284zM55.205 96.0474c-2.364.2476-6.2167 2.2217-6.2167 4.6494v8.609c0 2.4293 3.8528 4.4026 6.2168 4.647V96.0474zm23.905 52.796v3.9123m0 2.842v3.9133"/>
    <path stroke="#282D33" stroke-width="4" d="M79.0018 66.2853c-13.1418 0-23.7966 10.6482-23.7966 23.7837V94.5h30.9416l4.1584-7.2008 4.16 7.201h8.3388V90.069c0-13.1355-10.6564-23.7837-23.8022-23.7837zm-3.4092 45.7757c.8075 1.4016 2.13 2.3178 3.627 2.3178 1.498 0 2.8196-.9162 3.6272-2.3178m-13.6763-8.5377h-4.3377m28.3564 0h-4.337m-15.386 17.152v.4268c0 2.352 1.9093 4.259 4.2635 4.259h2.9834c2.353 0 4.263-1.906 4.263-4.258v-.426h-11.51z"/>
    <g transform="translate(0 18.1)">
      <mask id="b" fill="#fff">
        <use xlink:href="#a"/>
      </mask>
      <path stroke="#282D33" stroke-width="4" d="M361.474 173.5035c0 10.5408 8.5482 19.0863 19.097 19.0863.761 0 1.5116-.0448 2.2507-.132m-16.6804-31.798c-4.4485 0-8.056 3.0693-8.056 6.8563s3.6075 6.857 8.056 6.857c1.1107 0 2.17-.192 3.135-.539m13.0427 15.955v9.911m20.5975.001v-9.911" mask="url(#b)"/>
      <path stroke="#282D33" stroke-width="4" d="M367.1575 158.7752v5.642c0 14.744 11.9586 26.6993 26.7123 26.6993 5.0458 0 9.7608-1.3983 13.7847-3.8236m-13.6023-5.183c-2.3795 0-4.4762-1.454-5.758-3.678m-8.3005 27.373h-9.8944c-4.9057 0-8.8815 3.975-8.8815 8.876m63.8362 25.739v-25.739c0-4.902-3.9766-8.876-8.8823-8.876l-10.0574-.001m-30.776-44.214c2.7226 2.721 7.1352 2.721 9.8586 0" mask="url(#b)"/>
      <path stroke="#282D33" stroke-width="4" d="M427.003 193.7112h-4.8666c-14.893 0-26.9624-19.9218-26.9624-34.8033v-35.462m-2.6218 1.837v2.487c-2.1245 16.89-15.157 30.378-31.8282 33.203v-2.017c0-17.985 14.0822-32.677 31.8282-33.673zm-12.5888 86.765c0 1.238 1.0064 2.245 2.2475 2.245h20.969c1.241 0 2.246-1.007 2.246-2.246v-10.102c0-1.242-1.006-2.246-2.247-2.246H382.21c-1.2412 0-2.2476 1.004-2.2476 2.246v10.102zm17.4582 1.496v-8.606" mask="url(#b)"/>
    </g>
    <path stroke="#282D33" stroke-width="4" d="M459.8024 134.0124v23.12m-42.2838-.0004v-33.225m42.2838 19.0812v15.5925c-4.3874-7.635-12.6194-12.7788-22.06-12.7788-9.442 0-17.6742 5.143-22.0624 12.778v-15.592c-8.3893 6.557-13.788 16.76-13.788 28.23 0 19.786 16.051 35.827 35.8504 35.827 19.7987 0 35.848-16.041 35.848-35.827 0-11.469-5.397-21.673-13.788-28.231z"/>
    <path stroke="#282D33" stroke-width="4" d="M424.1054 127.4292h9.8065v18.3728m9.497-18.3728h9.805m-23.04 29.397c-.342.6426-.555 1.365-.555 2.1427 0 2.537 2.058 4.594 4.596 4.594h7.968c2.537 0 4.595-2.057 4.595-4.594 0-.778-.211-1.501-.554-2.143h-16.05zm-7.909-60.0197h-6.74c-3.045 0-5.515 2.4684-5.515 5.5118v20.8234c0 3.0434 2.47 5.5118 5.515 5.5118l12.255-26.533m38.914 38.792v-34.001c0-13.191-10.701-23.885-23.9-23.885h-2.45c-8.565 0-16.073 4.5054-20.294 11.2706l46.643 46.616zM160.311 93.0853v11.2826c0 1.833 1.4864 3.318 3.3207 3.318s3.319-1.486 3.319-3.319V93.085h-6.6398zm55.366 0v11.2826c0 1.833 1.4854 3.318 3.3206 3.318 1.8333 0 3.319-1.486 3.319-3.319V93.085h-6.64zm-14.2497 44.0597h16.245c6.6593 0 12.0547 4.775 12.0547 10.6654v11.475m-77.0285 31.56v-43.0346c0-5.8914 5.3978-10.6654 12.058-10.6654h16.002"/>
    <path stroke="#282D33" stroke-width="4" d="M174.1112 137.145v8.4494l17.102 9.8673 17.1023-9.8673v-8.4494"/>
    <path stroke="#282D33" stroke-width="4" d="M201.3425 132.754v8.8168l-10.1292 5.8458-10.1307-5.8458v-8.8167"/>
    <path stroke="#282D33" stroke-width="4" d="M215.26 78.1147c0-7.7678-6.3006-14.064-14.0715-14.064h-20.171c-7.774 0-14.074 6.2962-14.074 14.064l-.0424 39.531 13.335 15.3244h21.729l13.337-15.324-.041-39.531z"/>
    <path stroke="#282D33" stroke-width="4" d="M191.0576 107.3535c-9.2246 0-17.2342 5.4744-21.2744 13.5076l10.5358 12.109h21.7305l10.372-11.92c-4.0093-8.135-12.071-13.696-21.364-13.696z"/>
    <path stroke="#282D33" stroke-width="4" d="M185.327 117.4034c-.0227.1988-.0366.4015-.0366.605 0 3.0077 2.4382 5.4444 5.4476 5.4444h.726c3.008 0 5.4468-2.4367 5.4468-5.4443 0-.2036-.0122-.4063-.0326-.605h-11.551zm-5.0165-23.986h-4.3173m30.2164 0h-4.318m-6.1404-6.3054v14.2683h-9.298V87.112h-10.952m337.3783 52.1602H529.43c6.6528 0 12.0425 4.77 12.0425 10.6547v24.34m-48.8308-32.896l.0008-9.652m20.2395 0l-.0025 9.651m-21.9735 13.95l11.8144-7.803-10.882-6.281-.9324 14.083zm23.6916.002l-11.8143-7.805 10.882-6.28.9323 14.085zm12.4837-58.678h.3912c2.579 0 4.671 2.09 4.671 4.669v8.559c0 2.581-2.092 4.671-4.671 4.671h-.3912m-.4203-22.803v18.919c0 13.062-10.5943 23.648-23.662 23.648-13.07 0-23.6645-10.5864-23.6645-23.6485V91.742"/>
    <path stroke="#282D33" stroke-width="4" d="M494.5484 66.8114c-3.83 0-7.1955 1.9684-9.153 4.9475h-3.7582c-4.684 0-8.4822 3.795-8.4822 8.477v40.772h5.969V92.667c0-3.2966 2.6753-5.9686 5.9708-5.9686h38.3097c6.045 0 10.9465-4.897 10.9465-10.9375v-8.95h-39.8026z"/>
    <path stroke="#282D33" stroke-width="4" d="M479.3344 96.6935c-2.3494.2435-6.1794 2.2062-6.1794 4.62v8.5603c0 2.4147 3.83 4.3774 6.1794 4.621V96.6934zm18.6606 22.9845c1.136 1.97 2.993 3.2585 5.0988 3.2585 2.104 0 3.962-1.2884 5.0987-3.2584m-28.3178-22.919v3.794c0 5.406 4.3866 9.789 9.795 9.789 5.4077 0 9.7926-4.382 9.7926-9.788V96.76h-19.5876zm27.182 0v3.794c0 5.406 4.3857 9.789 9.7934 9.789 5.409 0 9.793-4.382 9.793-9.788V96.76h-19.586zm-13.2507 5.297h-4.3117m28.1927 0h-4.3133m-13.9297-5.297h8.956"/>
  </g>
</svg>
