<svg xmlns="http://www.w3.org/2000/svg" width="647" height="628" xmlns:xlink="http://www.w3.org/1999/xlink">
  <defs>
    <path id="a" d="M0 0h93v93H0V0z"/>
  </defs>
  <g fill="none" fill-rule="evenodd">
    <path fill="#FFD23D" d="M167.793 332.608c-6.16.084-11.507 3.537-14.416 8.648-3.046-5.036-8.47-8.366-14.64-8.296-9.376.036-16.872 8.372-16.735 18.623.02 1.99.34 3.887.903 5.623 1.313 5.78 10.824 14.22 19.614 21.062 4.264 3.302 11.455 8.204 11.455 8.232 3.04-1.93 7.062-5.03 11.227-8.46 8.594-7.045 17.862-15.775 19.03-21.597.52-1.753.79-3.66.763-5.65-.123-10.27-7.834-18.38-17.205-18.185"/>
    <path stroke="#FFF" stroke-width="3" d="M575.58 569.004c-6.4.087-11.955 3.675-14.978 8.986-3.165-5.233-8.802-8.693-15.21-8.62-9.744.037-17.532 8.7-17.39 19.35.02 2.07.354 4.038.938 5.843 1.365 6.005 11.247 14.774 20.38 21.883 4.434 3.432 11.906 8.525 11.906 8.554 3.16-2.005 7.34-5.227 11.666-8.792 8.93-7.32 18.56-16.39 19.773-22.438.54-1.822.822-3.804.793-5.872-.128-10.67-8.14-19.098-17.877-18.894"/>
    <path fill="#FFD23D" d="M.775 124.556c0 2.67 2.228 4.83 4.983 4.83h9.648v18.145l23.644-18.14h31.482c2.754 0 4.98-2.16 4.98-4.83V82.294c0-2.67-2.226-4.84-4.98-4.84H5.758c-2.755 0-4.983 2.17-4.983 4.84v42.262z"/>
    <path stroke="#FFF" stroke-width="6" d="M108.885 164.507h-9.737v18.3l-23.857-18.3H43.538c-2.784 0-5.024-2.184-5.024-4.877v-42.64c0-2.69 2.24-4.883 5.025-4.883h65.35c2.778 0 5.025 2.192 5.025 4.884v42.64c0 2.696-2.248 4.88-5.025 4.88z"/>
    <path stroke="#FFF" stroke-width="4" d="M600.966 328v75.962m37.952-37.982H563M89.664 492H29m93.22 0H102m31 0h10.56m419.104-339H502m93.22 0H575m31 0h10.56M119.664 512H59m93.22 0H132m31 0h10.56m419.104-339H532m93.22 0H605m31 0h10.56"/>
    <g transform="translate(518 -7)">
      <mask id="b" fill="#fff">
        <use xlink:href="#a"/>
      </mask>
      <path fill="#FFD23D" d="M34.875 81.375c0 2.13 1.744 3.875 3.875 3.875h15.5c2.13 0 3.875-1.744 3.875-3.875V77.5h-23.25v3.875zM46.5 7.75c-14.957 0-27.125 12.168-27.125 27.125 0 9.222 4.61 17.32 11.625 22.242v8.758c0 2.13 1.744 3.875 3.875 3.875h23.25c2.13 0 3.875-1.744 3.875-3.875v-8.758c7.014-4.92 11.625-13.02 11.625-22.242C73.625 19.918 61.458 7.75 46.5 7.75zm11.044 43.013l-3.294 2.325V62h-15.5v-8.913l-3.294-2.325c-5.23-3.642-8.33-9.57-8.33-15.887 0-10.695 8.68-19.375 19.374-19.375 10.695 0 19.375 8.68 19.375 19.375 0 6.316-3.1 12.245-8.33 15.888z" mask="url(#b)"/>
    </g>
  </g>
</svg>
