<svg xmlns="http://www.w3.org/2000/svg" width="131" height="94">
  <g fill="none" fill-rule="evenodd">
    <path stroke="#484F59" stroke-width="3" d="M61.692 5.813h8.268-8.268z"/>
    <path stroke="#484F59" stroke-width="3" d="M28.354 6.24l52.916 5.255c4.865.208 7.816 5.04 9.905 9.227l2.755 7.333" stroke-linecap="round"/>
    <path stroke="#484F59" stroke-width="3" d="M102.747 6.24L49.83 11.497c-4.865.206-7.814 5.04-9.905 9.225l-2.755 7.333" stroke-linecap="round"/>
    <path stroke="#484F59" stroke-width="3" d="M100.97 1.9H69.99c-.813 0-1.47.657-1.47 1.467v11.977c0 3.24 2.633 5.868 5.877 5.868h22.165c3.245 0 5.876-2.63 5.876-5.868v-6.11.978-6.845c0-.81-.655-1.467-1.467-1.467zm-40.653 0H29.335c-.813 0-1.474.657-1.474 1.467v5.867s.01 0 .01.003v6.107c0 3.24 2.63 5.868 5.877 5.868H55.91c3.244 0 5.877-2.63 5.877-5.868v-6.11.978-6.845c0-.81-.66-1.467-1.468-1.467z"/>
    <path fill="#FFF" d="M74.397 19.944c-2.54 0-4.608-2.063-4.608-4.6V3.368c0-.112.09-.202.2-.202h30.98c.11 0 .2.09.2.202v11.976c0 2.537-2.07 4.6-4.61 4.6H74.395zm-40.654 0c-2.54 0-4.61-2.063-4.61-4.6L29.13 3.368c0-.112.093-.202.205-.202h30.982c.11 0 .2.094.2.202v11.976c0 2.537-2.07 4.6-4.61 4.6H33.743z"/>
    <path fill="#F96332" d="M125.51 81.806h-6.74v10.006h6.74c.447 0 .802-.488.802-1.1V82.91c0-.612-.355-1.104-.8-1.104"/>
    <path stroke="#484F59" stroke-width="3" d="M125.51 81.806h-6.74v10.006h6.74c.447 0 .802-.488.802-1.1V82.91c0-.612-.355-1.104-.8-1.104z" stroke-linecap="round" stroke-linejoin="round"/>
    <path fill="#4AA648" d="M17.174 91.812H118.77V81.807H17.175v10.005z"/>
    <path stroke="#484F59" stroke-width="3" d="M17.174 91.812H118.77V81.807H17.175v10.005z" stroke-linecap="round" stroke-linejoin="round"/>
    <path fill="#F7FAFB" d="M18.022 86.812c0-1.782-.26-3.47-.72-4.998l-13.004 5 13.003 4.99c.466-1.53.726-3.212.726-4.992"/>
    <path stroke="#484F59" stroke-width="3" d="M18.022 86.812c0-1.782-.26-3.47-.72-4.998l-13.004 5 13.003 4.99c.466-1.53.726-3.212.726-4.992z" stroke-linecap="round" stroke-linejoin="round"/>
    <path fill="#E9F9FF" d="M110.345 91.91h8.633V81.77h-8.633v10.14z"/>
    <path stroke="#484F59" stroke-width="3" d="M110.345 91.91h8.633V81.77h-8.633v10.14z" stroke-linecap="round" stroke-linejoin="round"/>
    <path fill="#FFC400" d="M8.548 88.437c.04-.505.078-1.013.078-1.54 0-.584-.038-1.16-.098-1.72l-4.232 1.635 4.252 1.625z"/>
    <path stroke="#484F59" stroke-width="3" d="M8.548 88.437c.04-.505.078-1.013.078-1.54 0-.584-.038-1.16-.098-1.72l-4.232 1.635 4.252 1.625z"/>
    <path fill="#FABF2D" d="M1.843 64.12h126.923v-20.9H1.843v20.9z"/>
    <path stroke="#484F59" stroke-width="3" d="M1.843 64.12h126.923v-20.9H1.843v20.9zm8.884-19.635v8.233m8.885-8.233v4.433m8.885-4.433v8.233m8.883-8.233v4.433m8.886-4.433v8.233m8.884-8.233v4.433m8.885-4.433v8.233m8.885-8.233v4.433m8.884-4.433v8.233m8.886-8.233v4.433m8.884-4.433v8.233m8.884-8.233v4.433m8.885-4.433v8.233"/>
  </g>
</svg>
