<svg xmlns="http://www.w3.org/2000/svg" width="113" height="113">
  <g fill="none" fill-rule="evenodd">
    <path fill="#01DEE9" d="M41.29 16.33h56.905v40.29h-9.897v10.69L77.576 56.62H41.29V16.33z"/>
    <path fill="#4AA648" stroke="#484F59" stroke-width="3" d="M41.29 16.33h56.905v40.29h-9.897v10.69L77.576 56.62H41.29V16.33z" stroke-linecap="round"/>
    <path fill="#FABF2D" d="M6.442 112.59V94.587c-3.02-3.014-4.887-7.175-4.887-11.77 0-9.204 7.487-16.665 16.716-16.665 9.235 0 16.718 7.46 16.718 16.665 0 .254-.01.503-.02.754l2.336 4.036 3.07 5.3H36.49v6.578c0 2.484-2.02 4.494-4.51 4.494h-7.134v8.614"/>
    <path stroke="#484F59" stroke-width="3" d="M6.442 112.59V94.587c-3.02-3.014-4.887-7.175-4.887-11.77 0-9.204 7.487-16.665 16.716-16.665 9.235 0 16.718 7.46 16.718 16.665 0 .254-.01.503-.02.754l2.336 4.036 3.07 5.3H36.49v6.578c0 2.484-2.02 4.494-4.51 4.494h-7.134v8.614"/>
    <path fill="#E5E8EC" d="M106.832 112.59V97.817c2.475-2.474 4.007-5.888 4.007-9.66 0-7.553-6.14-13.673-13.716-13.673-7.578 0-13.718 6.12-13.718 13.674 0 .208.01.413.018.618l-1.918 3.31-2.52 4.348h3.19v5.4c0 2.035 1.653 3.687 3.695 3.687h5.86v7.07"/>
    <path stroke="#484F59" stroke-width="3" d="M106.832 112.59V97.817c2.475-2.474 4.007-5.888 4.007-9.66 0-7.553-6.14-13.673-13.716-13.673-7.578 0-13.718 6.12-13.718 13.674 0 .208.01.413.018.618l-1.918 3.31-2.52 4.348h3.19v5.4c0 2.035 1.653 3.687 3.695 3.687h5.86v7.07"/>
    <path fill="#FFF" d="M82.722 1.662H7.27V46.56h11.95v14.102L34.855 46.56h47.867V1.662z"/>
    <path stroke="#484F59" stroke-width="3" d="M82.722 1.662H7.27V46.56h11.95v14.102L34.855 46.56h47.867V1.662z" stroke-linecap="round"/>
  </g>
</svg>
