<svg xmlns="http://www.w3.org/2000/svg" width="184" height="113">
  <g fill="none" fill-rule="evenodd">
    <path fill="#CDD5D7" d="M23.705 48.188L2.07 52.878l-.003 9.39 21.637 4.686 6.008-4.97h79.097v-8.827l-79.1-.28-6.01-4.69z"/>
    <path stroke="#484F59" stroke-width="3" d="M23.705 48.188L2.07 52.878l-.003 9.39 21.637 4.686 6.008-4.97h79.097v-8.827l-79.1-.28-6.01-4.69z" stroke-linecap="round"/>
    <path fill="#FABF2D" d="M119.933 58.144c0 13.84-11.194 25.06-25.004 25.06s-25-11.22-25-25.06c0-13.844 11.19-25.064 25-25.064s25 11.22 25 25.064zm30.06 5.37l.002-14.92-8.828-1.894c-.453-1.846-1.012-3.65-1.672-5.404l6.625-5.998-7.44-12.918-9.165 2.965c-1.177-1.247-2.42-2.434-3.727-3.548l2.9-9-12.888-7.46-6.55 7.27c-1.596-.505-3.228-.928-4.89-1.26l-1.988-9.295H87.49l-1.987 9.294c-1.765.354-3.494.813-5.183 1.36l-6.1-6.77-12.888 7.458 2.717 8.424c-1.52 1.3-2.97 2.686-4.32 4.166l-7.96-2.574-7.44 12.92 5.89 5.33c-.78 2.12-1.41 4.31-1.88 6.56l-7.29 1.564V64.7l6.94 1.494c.42 2.523 1.05 4.976 1.86 7.35l-4.93 4.46 7.44 12.92 6.17-2.002c1.74 2.064 3.646 3.976 5.705 5.718l-1.89 5.86 12.885 7.46 4.22-4.674c2.558.88 5.21 1.554 7.94 1.99l1.28 5.968 14.88.002 1.375-6.435c2.6-.55 5.11-1.33 7.53-2.29l4.366 4.85 12.887-7.46-2.234-6.93c1.756-1.64 3.38-3.42 4.87-5.32l6.92 2.24 7.444-12.91-6.055-5.49c.59-2.04 1.06-4.125 1.377-6.264l7.963-1.71z"/>
    <path stroke="#484F59" stroke-width="3" d="M119.933 58.144c0 13.84-11.194 25.06-25.004 25.06s-25-11.22-25-25.06c0-13.844 11.19-25.064 25-25.064s25 11.22 25 25.064zm30.06 5.37l.002-14.92-8.828-1.894c-.453-1.846-1.012-3.65-1.672-5.404l6.625-5.998-7.44-12.918-9.165 2.965c-1.177-1.247-2.42-2.434-3.727-3.548l2.9-9-12.888-7.46-6.55 7.27c-1.596-.505-3.228-.928-4.89-1.26l-1.988-9.295H87.49l-1.987 9.294c-1.765.354-3.494.813-5.183 1.36l-6.1-6.77-12.888 7.458 2.717 8.424c-1.52 1.3-2.97 2.686-4.32 4.166l-7.96-2.574-7.44 12.92 5.89 5.33c-.78 2.12-1.41 4.31-1.88 6.56l-7.29 1.564V64.7l6.94 1.494c.42 2.523 1.05 4.976 1.86 7.35l-4.93 4.46 7.44 12.92 6.17-2.002c1.74 2.064 3.646 3.976 5.705 5.718l-1.89 5.86 12.885 7.46 4.22-4.674c2.558.88 5.21 1.554 7.94 1.99l1.28 5.968 14.88.002 1.375-6.435c2.6-.55 5.11-1.33 7.53-2.29l4.366 4.85 12.887-7.46-2.234-6.93c1.756-1.64 3.38-3.42 4.87-5.32l6.92 2.24 7.444-12.91-6.055-5.49c.59-2.04 1.06-4.125 1.377-6.264l7.963-1.71z"/>
    <path fill="#F6E2AF" d="M95.068 87.958c-16.326 0-29.56-13.26-29.56-29.627 0-16.36 13.234-29.63 29.56-29.63 16.33 0 29.56 13.27 29.56 29.64s-13.23 29.63-29.56 29.63m0-67.02c-20.6 0-37.302 16.74-37.302 37.4 0 20.65 16.7 37.393 37.302 37.393S132.372 79 132.372 58.35c0-20.65-16.702-37.392-37.304-37.392"/>
    <path fill="#4AA648" d="M122.53 41.782c-2.326.022-4.33 1.41-5.26 3.42-1.754-2.14-4.74-3.593-7.202-3.597-1.303.004-2.395.004-3.31.004-3.208 0-4.277 0-4.28-.01h-6.322c-3.214 0-2.834 2.62-2.852 5.88l-.002 20.15c.028 3.26-.363 5.89 2.854 5.88 1.297.004 5.404 0 6.32.004 3.206-.007 4.278-.006 4.278-.006.92 0 2.015.004 3.314.002 2.46.014 5.444-1.44 7.198-3.58.87 2.207 3.005 3.764 5.483 3.744 20.66-.143 28.77-.196 49.44-.34 3.2-.002 7.28-2.473 8.36-5.72 2.19-6.69 2.15-13.927-.14-20.584-1.13-3.216-5.25-5.63-8.45-5.612-20.66.15-28.77.2-49.44.346"/>
    <path stroke="#484F59" stroke-width="3" d="M122.53 41.782c-2.326.022-4.33 1.41-5.26 3.42-1.754-2.14-4.74-3.593-7.202-3.597-1.303.004-2.395.004-3.31.004-3.208 0-4.277 0-4.28-.01h-6.322c-3.214 0-2.834 2.62-2.852 5.88l-.002 20.15c.028 3.26-.363 5.89 2.854 5.88 1.297.004 5.404 0 6.32.004 3.206-.007 4.278-.006 4.278-.006.92 0 2.015.004 3.314.002 2.46.014 5.444-1.44 7.198-3.58.87 2.207 3.005 3.764 5.483 3.744 20.66-.143 28.77-.196 49.44-.34 3.2-.002 7.28-2.473 8.36-5.72 2.19-6.69 2.15-13.927-.14-20.584-1.13-3.216-5.25-5.63-8.45-5.612-20.66.15-28.77.2-49.44.346zm5.4 7.978h42.644m-42.644 7.808h42.644m-42.646 7.802h42.644" stroke-linecap="round"/>
    <path stroke="#484F59" stroke-width="3" d="M117.56 70.785v-26.44"/>
  </g>
</svg>
